<mxfile host="app.diagrams.net" modified="2024-06-30T22:24:13.435Z" agent="Mozilla/5.0 (Windows NT 10.0; Win64; x64) AppleWebKit/537.36 (KHTML, like Gecko) Chrome/126.0.0.0 Safari/537.36" etag="F9KdVRH0qtz_i1g5rD7R" version="24.6.4" type="github">
  <diagram name="Page-1" id="lRtBAIpS-W9u6s53XFDW">
    <mxGraphModel dx="1434" dy="738" grid="1" gridSize="10" guides="1" tooltips="1" connect="1" arrows="1" fold="1" page="1" pageScale="1" pageWidth="850" pageHeight="1100" math="0" shadow="0">
      <root>
        <mxCell id="0" />
        <mxCell id="1" parent="0" />
        <mxCell id="a1-9cvfqBLkIk2HenWok-1" value="&lt;font style=&quot;font-size: 33px;&quot;&gt;Exam 2 Part 1 Question 3&lt;/font&gt;" style="rounded=0;whiteSpace=wrap;html=1;" vertex="1" parent="1">
          <mxGeometry x="40" y="40" width="760" height="60" as="geometry" />
        </mxCell>
        <mxCell id="a1-9cvfqBLkIk2HenWok-2" value="Customers" style="whiteSpace=wrap;html=1;align=center;" vertex="1" parent="1">
          <mxGeometry x="140" y="280" width="100" height="40" as="geometry" />
        </mxCell>
        <mxCell id="a1-9cvfqBLkIk2HenWok-3" value="CustomerID" style="ellipse;whiteSpace=wrap;html=1;align=center;fontStyle=4;" vertex="1" parent="1">
          <mxGeometry x="140" y="200" width="100" height="40" as="geometry" />
        </mxCell>
        <mxCell id="a1-9cvfqBLkIk2HenWok-4" value="FirstName" style="ellipse;whiteSpace=wrap;html=1;align=center;" vertex="1" parent="1">
          <mxGeometry x="10" y="280" width="100" height="40" as="geometry" />
        </mxCell>
        <mxCell id="a1-9cvfqBLkIk2HenWok-5" value="LastName" style="ellipse;whiteSpace=wrap;html=1;align=center;" vertex="1" parent="1">
          <mxGeometry x="40" y="360" width="100" height="40" as="geometry" />
        </mxCell>
        <mxCell id="a1-9cvfqBLkIk2HenWok-6" value="PhoneNumber" style="ellipse;whiteSpace=wrap;html=1;align=center;" vertex="1" parent="1">
          <mxGeometry x="160" y="360" width="100" height="40" as="geometry" />
        </mxCell>
        <mxCell id="a1-9cvfqBLkIk2HenWok-7" value="Courses" style="whiteSpace=wrap;html=1;align=center;" vertex="1" parent="1">
          <mxGeometry x="540" y="280" width="100" height="40" as="geometry" />
        </mxCell>
        <mxCell id="a1-9cvfqBLkIk2HenWok-8" value="CourseID" style="ellipse;whiteSpace=wrap;html=1;align=center;fontStyle=4;" vertex="1" parent="1">
          <mxGeometry x="540" y="200" width="100" height="40" as="geometry" />
        </mxCell>
        <mxCell id="a1-9cvfqBLkIk2HenWok-9" value="CourseName" style="ellipse;whiteSpace=wrap;html=1;align=center;" vertex="1" parent="1">
          <mxGeometry x="670" y="280" width="100" height="40" as="geometry" />
        </mxCell>
        <mxCell id="a1-9cvfqBLkIk2HenWok-12" value="CourseFee" style="ellipse;whiteSpace=wrap;html=1;align=center;" vertex="1" parent="1">
          <mxGeometry x="540" y="360" width="100" height="40" as="geometry" />
        </mxCell>
        <mxCell id="a1-9cvfqBLkIk2HenWok-13" value="" style="edgeStyle=entityRelationEdgeStyle;fontSize=12;html=1;endArrow=ERoneToMany;startArrow=ERoneToMany;rounded=0;entryX=0;entryY=0.5;entryDx=0;entryDy=0;exitX=1;exitY=0.5;exitDx=0;exitDy=0;" edge="1" parent="1" source="a1-9cvfqBLkIk2HenWok-2" target="a1-9cvfqBLkIk2HenWok-7">
          <mxGeometry width="100" height="100" relative="1" as="geometry">
            <mxPoint x="370" y="420" as="sourcePoint" />
            <mxPoint x="470" y="320" as="targetPoint" />
          </mxGeometry>
        </mxCell>
        <mxCell id="a1-9cvfqBLkIk2HenWok-14" value="AmountPaid" style="ellipse;whiteSpace=wrap;html=1;align=center;" vertex="1" parent="1">
          <mxGeometry x="350" y="220" width="100" height="40" as="geometry" />
        </mxCell>
        <mxCell id="a1-9cvfqBLkIk2HenWok-15" value="CourseDate" style="ellipse;whiteSpace=wrap;html=1;align=center;" vertex="1" parent="1">
          <mxGeometry x="350" y="330" width="100" height="40" as="geometry" />
        </mxCell>
        <mxCell id="a1-9cvfqBLkIk2HenWok-16" value="" style="endArrow=none;html=1;rounded=0;exitX=1;exitY=0.5;exitDx=0;exitDy=0;entryX=0;entryY=0.5;entryDx=0;entryDy=0;" edge="1" parent="1" source="a1-9cvfqBLkIk2HenWok-4" target="a1-9cvfqBLkIk2HenWok-2">
          <mxGeometry relative="1" as="geometry">
            <mxPoint x="330" y="430" as="sourcePoint" />
            <mxPoint x="490" y="430" as="targetPoint" />
          </mxGeometry>
        </mxCell>
        <mxCell id="a1-9cvfqBLkIk2HenWok-17" value="" style="endArrow=none;html=1;rounded=0;exitX=1;exitY=0;exitDx=0;exitDy=0;entryX=0.25;entryY=1;entryDx=0;entryDy=0;" edge="1" parent="1" source="a1-9cvfqBLkIk2HenWok-5" target="a1-9cvfqBLkIk2HenWok-2">
          <mxGeometry relative="1" as="geometry">
            <mxPoint x="340" y="440" as="sourcePoint" />
            <mxPoint x="500" y="440" as="targetPoint" />
          </mxGeometry>
        </mxCell>
        <mxCell id="a1-9cvfqBLkIk2HenWok-18" value="" style="endArrow=none;html=1;rounded=0;exitX=0.5;exitY=0;exitDx=0;exitDy=0;entryX=0.5;entryY=1;entryDx=0;entryDy=0;" edge="1" parent="1" source="a1-9cvfqBLkIk2HenWok-6" target="a1-9cvfqBLkIk2HenWok-2">
          <mxGeometry relative="1" as="geometry">
            <mxPoint x="350" y="450" as="sourcePoint" />
            <mxPoint x="510" y="450" as="targetPoint" />
          </mxGeometry>
        </mxCell>
        <mxCell id="a1-9cvfqBLkIk2HenWok-19" value="" style="endArrow=none;html=1;rounded=0;exitX=0.5;exitY=1;exitDx=0;exitDy=0;entryX=0.5;entryY=0;entryDx=0;entryDy=0;" edge="1" parent="1" source="a1-9cvfqBLkIk2HenWok-3" target="a1-9cvfqBLkIk2HenWok-2">
          <mxGeometry relative="1" as="geometry">
            <mxPoint x="360" y="460" as="sourcePoint" />
            <mxPoint x="520" y="460" as="targetPoint" />
          </mxGeometry>
        </mxCell>
        <mxCell id="a1-9cvfqBLkIk2HenWok-20" value="" style="endArrow=none;html=1;rounded=0;exitX=0.5;exitY=1;exitDx=0;exitDy=0;" edge="1" parent="1" source="a1-9cvfqBLkIk2HenWok-14">
          <mxGeometry relative="1" as="geometry">
            <mxPoint x="370" y="470" as="sourcePoint" />
            <mxPoint x="400" y="300" as="targetPoint" />
            <Array as="points">
              <mxPoint x="400" y="280" />
            </Array>
          </mxGeometry>
        </mxCell>
        <mxCell id="a1-9cvfqBLkIk2HenWok-21" value="" style="endArrow=none;html=1;rounded=0;exitX=0.5;exitY=0;exitDx=0;exitDy=0;" edge="1" parent="1" source="a1-9cvfqBLkIk2HenWok-15">
          <mxGeometry relative="1" as="geometry">
            <mxPoint x="380" y="480" as="sourcePoint" />
            <mxPoint x="400" y="300" as="targetPoint" />
          </mxGeometry>
        </mxCell>
        <mxCell id="a1-9cvfqBLkIk2HenWok-22" value="" style="endArrow=none;html=1;rounded=0;exitX=0.5;exitY=0;exitDx=0;exitDy=0;entryX=0.5;entryY=1;entryDx=0;entryDy=0;" edge="1" parent="1" source="a1-9cvfqBLkIk2HenWok-12" target="a1-9cvfqBLkIk2HenWok-7">
          <mxGeometry relative="1" as="geometry">
            <mxPoint x="390" y="490" as="sourcePoint" />
            <mxPoint x="550" y="490" as="targetPoint" />
          </mxGeometry>
        </mxCell>
        <mxCell id="a1-9cvfqBLkIk2HenWok-23" value="" style="endArrow=none;html=1;rounded=0;exitX=1;exitY=0.75;exitDx=0;exitDy=0;entryX=0;entryY=0.5;entryDx=0;entryDy=0;" edge="1" parent="1" source="a1-9cvfqBLkIk2HenWok-7" target="a1-9cvfqBLkIk2HenWok-9">
          <mxGeometry relative="1" as="geometry">
            <mxPoint x="400" y="500" as="sourcePoint" />
            <mxPoint x="560" y="500" as="targetPoint" />
          </mxGeometry>
        </mxCell>
        <mxCell id="a1-9cvfqBLkIk2HenWok-24" value="" style="endArrow=none;html=1;rounded=0;exitX=0.5;exitY=1;exitDx=0;exitDy=0;entryX=0.5;entryY=0;entryDx=0;entryDy=0;" edge="1" parent="1" source="a1-9cvfqBLkIk2HenWok-8" target="a1-9cvfqBLkIk2HenWok-7">
          <mxGeometry relative="1" as="geometry">
            <mxPoint x="410" y="510" as="sourcePoint" />
            <mxPoint x="570" y="510" as="targetPoint" />
          </mxGeometry>
        </mxCell>
      </root>
    </mxGraphModel>
  </diagram>
</mxfile>
